<mxfile host="65bd71144e">
    <diagram id="ti9i7iF3CxTZv8XfENb1" name="Page-1">
        <mxGraphModel dx="260" dy="179" grid="1" gridSize="10" guides="1" tooltips="1" connect="1" arrows="1" fold="1" page="1" pageScale="1" pageWidth="850" pageHeight="1100" math="0" shadow="0">
            <root>
                <mxCell id="0"/>
                <mxCell id="1" parent="0"/>
                <mxCell id="2" value="" style="edgeStyle=none;html=1;entryX=0.5;entryY=0;entryDx=0;entryDy=0;" parent="1" source="3" target="15" edge="1">
                    <mxGeometry relative="1" as="geometry"/>
                </mxCell>
                <mxCell id="3" value="Injecten Skript" style="rounded=1;whiteSpace=wrap;html=1;fontSize=19;strokeColor=#333333;" parent="1" vertex="1">
                    <mxGeometry x="70" y="110" width="140" height="30" as="geometry"/>
                </mxCell>
                <mxCell id="4" style="edgeStyle=none;html=1;entryX=0.5;entryY=0;entryDx=0;entryDy=0;startArrow=none;exitX=0.5;exitY=1;exitDx=0;exitDy=0;" parent="1" source="5" target="3" edge="1">
                    <mxGeometry relative="1" as="geometry">
                        <mxPoint x="140" y="130" as="sourcePoint"/>
                    </mxGeometry>
                </mxCell>
                <mxCell id="5" value="" style="ellipse;whiteSpace=wrap;html=1;aspect=fixed;strokeColor=none;fillColor=#000000;" parent="1" vertex="1">
                    <mxGeometry x="125" y="50" width="30" height="30" as="geometry"/>
                </mxCell>
                <mxCell id="6" value="" style="endArrow=none;html=1;rounded=0;fontColor=#333333;strokeWidth=2;strokeColor=#333333;" parent="1" edge="1">
                    <mxGeometry width="50" height="50" relative="1" as="geometry">
                        <mxPoint x="250" y="820" as="sourcePoint"/>
                        <mxPoint x="250" y="10" as="targetPoint"/>
                    </mxGeometry>
                </mxCell>
                <mxCell id="7" value="Playwright" style="text;html=1;strokeColor=none;fillColor=none;align=center;verticalAlign=middle;whiteSpace=wrap;rounded=0;fontColor=#000000;fontSize=22;" parent="1" vertex="1">
                    <mxGeometry x="50" y="10" width="180" height="30" as="geometry"/>
                </mxCell>
                <mxCell id="8" value="Browser / Window" style="text;html=1;strokeColor=none;fillColor=none;align=center;verticalAlign=middle;whiteSpace=wrap;rounded=0;fontColor=#000000;fontSize=22;" parent="1" vertex="1">
                    <mxGeometry x="268.75" y="10" width="182.5" height="30" as="geometry"/>
                </mxCell>
                <mxCell id="9" style="edgeStyle=orthogonalEdgeStyle;rounded=0;html=1;entryX=0.5;entryY=0;entryDx=0;entryDy=0;" parent="1" source="10" target="24" edge="1">
                    <mxGeometry relative="1" as="geometry"/>
                </mxCell>
                <mxCell id="10" value="&lt;u style=&quot;font-size: 18px;&quot;&gt;loadTimes&lt;/u&gt;&lt;br style=&quot;font-size: 18px;&quot;&gt;[gef端llt]" style="rounded=0;whiteSpace=wrap;html=1;strokeColor=#333333;fillColor=#E6E6E6;fontColor=#333333;fontSize=18;" parent="1" vertex="1">
                    <mxGeometry x="307.5" y="401" width="105" height="50" as="geometry"/>
                </mxCell>
                <mxCell id="11" value="" style="group" parent="1" vertex="1" connectable="0">
                    <mxGeometry x="81" y="291" width="117" height="30" as="geometry"/>
                </mxCell>
                <mxCell id="12" value="Warten 3 s" style="rounded=1;whiteSpace=wrap;html=1;fontSize=18;align=right;spacingRight=5;strokeColor=#333333;" parent="11" vertex="1">
                    <mxGeometry width="117" height="30" as="geometry"/>
                </mxCell>
                <mxCell id="13" value="" style="shape=image;verticalLabelPosition=bottom;labelBackgroundColor=none;verticalAlign=top;aspect=fixed;imageAspect=0;image=data:image/svg+xml,PHN2ZyB4bWxucz0iaHR0cDovL3d3dy53My5vcmcvMjAwMC9zdmciIGZpbGw9Im5vbmUiIHZpZXdCb3g9IjAgMCAyNCAyNCIgaGVpZ2h0PSI4MDBweCIgd2lkdGg9IjgwMHB4Ij4KPHBhdGggc3Ryb2tlLWxpbmVqb2luPSJyb3VuZCIgc3Ryb2tlLWxpbmVjYXA9InJvdW5kIiBzdHJva2Utd2lkdGg9IjIiIHN0cm9rZT0iIzAwMDAwMCIgZD0iTTEyIDE0VjExTTEyIDZDNy44NTc4NiA2IDQuNSA5LjM1Nzg2IDQuNSAxMy41QzQuNSAxNy42NDIxIDcuODU3ODYgMjEgMTIgMjFDMTYuMTQyMSAyMSAxOS41IDE3LjY0MjEgMTkuNSAxMy41QzE5LjUgMTEuNTU2MSAxOC43NjA1IDkuNzg0OTQgMTcuNTQ3NCA4LjQ1MjVNMTIgNkMxNC4xOTgyIDYgMTYuMTc1NiA2Ljk0NTcyIDE3LjU0NzQgOC40NTI1TTEyIDZWM00xOS41IDYuNUwxNy41NDc0IDguNDUyNU0xMiAzSDlNMTIgM0gxNSIvPgo8L3N2Zz4=;imageBackground=none;fontColor=none;noLabel=1;imageBorder=none;" parent="11" vertex="1">
                    <mxGeometry x="4.254545454545454" y="6" width="18.436363636363634" height="18.436363636363634" as="geometry"/>
                </mxCell>
                <mxCell id="14" style="edgeStyle=none;html=1;entryX=0.5;entryY=0;entryDx=0;entryDy=0;" parent="1" source="15" target="18" edge="1">
                    <mxGeometry relative="1" as="geometry"/>
                </mxCell>
                <mxCell id="15" value="Aufrufen Seiten" style="rounded=1;whiteSpace=wrap;html=1;fontSize=19;strokeColor=#333333;" parent="1" vertex="1">
                    <mxGeometry x="69.5" y="180" width="140" height="30" as="geometry"/>
                </mxCell>
                <mxCell id="16" style="edgeStyle=none;html=1;entryX=0.336;entryY=0.019;entryDx=0;entryDy=0;entryPerimeter=0;exitX=0.332;exitY=-0.302;exitDx=0;exitDy=0;exitPerimeter=0;" parent="1" source="18" target="12" edge="1">
                    <mxGeometry relative="1" as="geometry"/>
                </mxCell>
                <mxCell id="17" style="edgeStyle=orthogonalEdgeStyle;html=1;entryX=0.5;entryY=0;entryDx=0;entryDy=0;rounded=0;" parent="1" source="18" target="20" edge="1">
                    <mxGeometry relative="1" as="geometry">
                        <Array as="points">
                            <mxPoint x="160" y="260"/>
                            <mxPoint x="360" y="260"/>
                        </Array>
                    </mxGeometry>
                </mxCell>
                <mxCell id="18" value="" style="rounded=0;whiteSpace=wrap;html=1;strokeColor=#333333;fontColor=#333333;fillColor=#E6E6E6;" parent="1" vertex="1">
                    <mxGeometry x="79.5" y="240" width="120" height="1" as="geometry"/>
                </mxCell>
                <mxCell id="19" style="edgeStyle=none;html=1;" parent="1" source="20" target="22" edge="1">
                    <mxGeometry relative="1" as="geometry"/>
                </mxCell>
                <mxCell id="20" value="Laden Seite" style="rounded=1;whiteSpace=wrap;html=1;fontSize=19;strokeColor=#333333;" parent="1" vertex="1">
                    <mxGeometry x="290" y="291" width="140" height="30" as="geometry"/>
                </mxCell>
                <mxCell id="21" style="edgeStyle=none;html=1;entryX=0.5;entryY=0;entryDx=0;entryDy=0;" parent="1" source="22" target="10" edge="1">
                    <mxGeometry relative="1" as="geometry"/>
                </mxCell>
                <mxCell id="22" value="Mutieren DOM" style="rounded=1;whiteSpace=wrap;html=1;fontSize=19;strokeColor=#333333;" parent="1" vertex="1">
                    <mxGeometry x="290" y="342" width="140" height="30" as="geometry"/>
                </mxCell>
                <mxCell id="32" style="edgeStyle=none;html=1;entryX=0.5;entryY=1;entryDx=0;entryDy=0;" edge="1" parent="1" source="24" target="31">
                    <mxGeometry relative="1" as="geometry"/>
                </mxCell>
                <mxCell id="24" value="Zur端cksetzen loadTimes" style="rounded=1;whiteSpace=wrap;html=1;fontSize=19;strokeColor=#333333;" parent="1" vertex="1">
                    <mxGeometry x="34.5" y="470" width="210" height="30" as="geometry"/>
                </mxCell>
                <mxCell id="25" style="edgeStyle=orthogonalEdgeStyle;rounded=0;html=1;entryX=0.5;entryY=0;entryDx=0;entryDy=0;" parent="1" source="12" target="24" edge="1">
                    <mxGeometry relative="1" as="geometry"/>
                </mxCell>
                <mxCell id="47" style="edgeStyle=orthogonalEdgeStyle;rounded=0;html=1;entryX=0.5;entryY=0;entryDx=0;entryDy=0;" edge="1" parent="1" source="27" target="38">
                    <mxGeometry relative="1" as="geometry"/>
                </mxCell>
                <mxCell id="27" value="&lt;u style=&quot;font-size: 18px;&quot;&gt;loadTimes&lt;/u&gt;&lt;br style=&quot;font-size: 18px;&quot;&gt;[gef端llt]" style="rounded=0;whiteSpace=wrap;html=1;strokeColor=#333333;fillColor=#E6E6E6;fontColor=#333333;fontSize=18;" vertex="1" parent="1">
                    <mxGeometry x="307.5" y="680" width="105" height="50" as="geometry"/>
                </mxCell>
                <mxCell id="28" style="edgeStyle=none;html=1;entryX=0.5;entryY=0;entryDx=0;entryDy=0;" edge="1" source="29" target="27" parent="1">
                    <mxGeometry relative="1" as="geometry"/>
                </mxCell>
                <mxCell id="29" value="Mutieren DOM" style="rounded=1;whiteSpace=wrap;html=1;fontSize=19;strokeColor=#333333;" vertex="1" parent="1">
                    <mxGeometry x="290" y="630" width="140" height="30" as="geometry"/>
                </mxCell>
                <mxCell id="30" value="Ausf端hren Interaktion" style="rounded=1;whiteSpace=wrap;html=1;fontSize=19;strokeColor=#333333;" vertex="1" parent="1">
                    <mxGeometry x="34.5" y="550" width="210" height="30" as="geometry"/>
                </mxCell>
                <mxCell id="33" style="edgeStyle=none;html=1;entryX=0.36;entryY=0.071;entryDx=0;entryDy=0;entryPerimeter=0;exitX=0.25;exitY=1;exitDx=0;exitDy=0;" edge="1" parent="1" source="31" target="30">
                    <mxGeometry relative="1" as="geometry"/>
                </mxCell>
                <mxCell id="35" style="edgeStyle=orthogonalEdgeStyle;html=1;entryX=0;entryY=0.5;entryDx=0;entryDy=0;rounded=0;exitX=0.75;exitY=0;exitDx=0;exitDy=0;" edge="1" parent="1" source="31" target="34">
                    <mxGeometry relative="1" as="geometry">
                        <Array as="points">
                            <mxPoint x="170" y="535"/>
                        </Array>
                    </mxGeometry>
                </mxCell>
                <mxCell id="31" value="" style="rounded=0;whiteSpace=wrap;html=1;strokeColor=#333333;fontColor=#333333;fillColor=#E6E6E6;" vertex="1" parent="1">
                    <mxGeometry x="80" y="520" width="120" height="1" as="geometry"/>
                </mxCell>
                <mxCell id="34" value="&lt;u style=&quot;font-size: 18px;&quot;&gt;loadTimes&lt;/u&gt;&lt;br style=&quot;font-size: 18px;&quot;&gt;[leer]" style="rounded=0;whiteSpace=wrap;html=1;strokeColor=#333333;fillColor=#E6E6E6;fontColor=#333333;fontSize=18;" vertex="1" parent="1">
                    <mxGeometry x="307.5" y="510" width="105" height="50" as="geometry"/>
                </mxCell>
                <mxCell id="37" style="edgeStyle=orthogonalEdgeStyle;rounded=0;html=1;entryX=0.5;entryY=0;entryDx=0;entryDy=0;" edge="1" parent="1" source="38" target="39">
                    <mxGeometry relative="1" as="geometry"/>
                </mxCell>
                <mxCell id="38" value="Auswerten loadTimes" style="rounded=1;whiteSpace=wrap;html=1;fontSize=19;strokeColor=#333333;" vertex="1" parent="1">
                    <mxGeometry x="37" y="760" width="203" height="30" as="geometry"/>
                </mxCell>
                <mxCell id="41" value="" style="rounded=0;html=1;entryX=0.5;entryY=0;entryDx=0;entryDy=0;exitX=0.5;exitY=1;exitDx=0;exitDy=0;endArrow=none;" edge="1" parent="1" source="30" target="40">
                    <mxGeometry relative="1" as="geometry">
                        <mxPoint x="139.5" y="580" as="sourcePoint"/>
                        <mxPoint x="360" y="615.5" as="targetPoint"/>
                    </mxGeometry>
                </mxCell>
                <mxCell id="45" style="edgeStyle=none;rounded=0;html=1;entryX=0.25;entryY=0;entryDx=0;entryDy=0;exitX=0.25;exitY=1;exitDx=0;exitDy=0;" edge="1" parent="1" source="40" target="43">
                    <mxGeometry relative="1" as="geometry"/>
                </mxCell>
                <mxCell id="46" style="edgeStyle=orthogonalEdgeStyle;rounded=0;html=1;entryX=0.5;entryY=0;entryDx=0;entryDy=0;exitX=0.75;exitY=1;exitDx=0;exitDy=0;" edge="1" parent="1" source="40" target="29">
                    <mxGeometry relative="1" as="geometry">
                        <Array as="points">
                            <mxPoint x="170" y="610"/>
                            <mxPoint x="360" y="610"/>
                        </Array>
                    </mxGeometry>
                </mxCell>
                <mxCell id="40" value="" style="rounded=0;whiteSpace=wrap;html=1;strokeColor=#333333;fontColor=#333333;fillColor=#E6E6E6;" vertex="1" parent="1">
                    <mxGeometry x="79.5" y="600" width="120" height="1" as="geometry"/>
                </mxCell>
                <mxCell id="42" value="" style="group" vertex="1" connectable="0" parent="1">
                    <mxGeometry x="80" y="630" width="117" height="30" as="geometry"/>
                </mxCell>
                <mxCell id="43" value="Warten 5 s" style="rounded=1;whiteSpace=wrap;html=1;fontSize=18;align=right;spacingRight=5;strokeColor=#333333;" vertex="1" parent="42">
                    <mxGeometry width="117" height="30" as="geometry"/>
                </mxCell>
                <mxCell id="44" value="" style="shape=image;verticalLabelPosition=bottom;labelBackgroundColor=none;verticalAlign=top;aspect=fixed;imageAspect=0;image=data:image/svg+xml,PHN2ZyB4bWxucz0iaHR0cDovL3d3dy53My5vcmcvMjAwMC9zdmciIGZpbGw9Im5vbmUiIHZpZXdCb3g9IjAgMCAyNCAyNCIgaGVpZ2h0PSI4MDBweCIgd2lkdGg9IjgwMHB4Ij4KPHBhdGggc3Ryb2tlLWxpbmVqb2luPSJyb3VuZCIgc3Ryb2tlLWxpbmVjYXA9InJvdW5kIiBzdHJva2Utd2lkdGg9IjIiIHN0cm9rZT0iIzAwMDAwMCIgZD0iTTEyIDE0VjExTTEyIDZDNy44NTc4NiA2IDQuNSA5LjM1Nzg2IDQuNSAxMy41QzQuNSAxNy42NDIxIDcuODU3ODYgMjEgMTIgMjFDMTYuMTQyMSAyMSAxOS41IDE3LjY0MjEgMTkuNSAxMy41QzE5LjUgMTEuNTU2MSAxOC43NjA1IDkuNzg0OTQgMTcuNTQ3NCA4LjQ1MjVNMTIgNkMxNC4xOTgyIDYgMTYuMTc1NiA2Ljk0NTcyIDE3LjU0NzQgOC40NTI1TTEyIDZWM00xOS41IDYuNUwxNy41NDc0IDguNDUyNU0xMiAzSDlNMTIgM0gxNSIvPgo8L3N2Zz4=;imageBackground=none;fontColor=none;noLabel=1;imageBorder=none;" vertex="1" parent="42">
                    <mxGeometry x="4.254545454545454" y="5.779999999999999" width="18.436363636363634" height="18.436363636363634" as="geometry"/>
                </mxCell>
                <mxCell id="48" style="edgeStyle=orthogonalEdgeStyle;rounded=0;html=1;entryX=0.5;entryY=0;entryDx=0;entryDy=0;" edge="1" parent="1" source="43" target="38">
                    <mxGeometry relative="1" as="geometry"/>
                </mxCell>
                <mxCell id="50" value="" style="group" vertex="1" connectable="0" parent="1">
                    <mxGeometry x="123.5" y="820" width="30" height="30" as="geometry"/>
                </mxCell>
                <mxCell id="39" value="" style="ellipse;whiteSpace=wrap;html=1;aspect=fixed;strokeColor=default;fillColor=#000000;perimeterSpacing=0;strokeWidth=1;" vertex="1" parent="50">
                    <mxGeometry width="30" height="30" as="geometry"/>
                </mxCell>
                <mxCell id="49" value="" style="ellipse;whiteSpace=wrap;html=1;aspect=fixed;strokeColor=default;fillColor=#000000;perimeterSpacing=0;strokeWidth=1;" vertex="1" parent="50">
                    <mxGeometry x="3" y="3" width="24" height="24" as="geometry"/>
                </mxCell>
            </root>
        </mxGraphModel>
    </diagram>
</mxfile>